<?xml version="1.0" encoding="UTF-8"?><svg id="Layer_1" xmlns="http://www.w3.org/2000/svg" viewBox="0 0 551.85 551.85"><circle cx="275.93" cy="275.93" r="275.93" style="fill:#dae1e5;"/><path d="M50.01,387.55c8.76.47,17.37-.8,26.06-1.54,60.81,108.69,200.18,147.38,308.62,83.7,104.44-61.33,138.9-192.81,80.85-299.19-1.76-3.22-10.46-15.44-10.46-17.47s3.42-7.93,4.22-10.72c.64-2.25,3.14-16.8,4.22-16.76,27.76,34.68,46.97,78.29,52.37,122.61,19.91,163.37-120.19,296.93-282.21,273.21-78.33-11.47-148.93-62.98-183.67-133.82Z" style="fill:#172737;"/><path d="M141.01,338.54l-.99-260.99,129.48,106.82,129.51-105.82-.99,101.99-2.01-.65-.43-33.97-43.24,35.58c-1.35,2.3-2.79,2.98-4.32,2.04-24.16,19.98-49,41.72-73.53,60.97-1.07.84-3.65,3.04-4.79,2.87l-79.67-65.84-1.01,140-2-.69-.2-138.39c-13.58-12.69-28.18-24.92-43.79-36.69.13,63.92.05,127.76-.26,191.53l-1.75,1.24Z" style="fill:#484848;"/><path d="M274.01,424.54c52.95-1.52,92.24-51.17,87-103h53l-17.97,9.53c.42,3.4.66,7.77.17,12.8-.5,5.11-1.61,9.4-2.7,12.68,0,0,8.83,6.13,22.57,15.67l-12.19,34.21c-1.47.94-22.56-3.82-26.54-3.84-1.91-.01-2.07.37-3.41,1.39-1.36,1.05-13.52,16.14-13.69,17.23-.6,3.82,10.65,25.42,9.65,27.19l-28.58,18.98c-2.3.36-18.31-14.94-21.35-17.36-3.31-1.53-19.79,5.57-24.76,5.73l-7.16,28.34-34.4.49c-2.36-.56-5.27-25.01-8.16-28.04-.8-.84-20.45-7.09-22.03-7.07-5.47.92-19.08,18.86-23.71,17.92-1.66-.33-27.2-17.9-27.61-19.54.13-5.48,10.15-23.41,8.4-27.28-3.56-2.03-11.81-16.05-14.2-16.87-5.18-1.78-26.2,3.72-28.34,2.4l-12-31.56,56.46-18c1.19.24,3.43,9.53,4.36,11.67,7.72,17.78,20.38,33.41,37.18,43.32l3.63-.24c13.3,7.09,28.23,11.03,43.31,11.27l3.06,1.97Z" style="fill:#484848;"/><path d="M32,292.55c.83.91-7.47,15.48-8.48,18.01-28.2,70.94,74.18,49.65,109.9,39.9,69.12-18.86,146.23-59.74,203.5-102.5,32.4-24.2,100.16-80.26,94.98-124.81-.35-3.03-2.6-7.21-2.39-9.72.6-7.07,7.84-18.95,8.51-26.88,20.6,16.39,18.54,41.33,8.85,63.36-32.47,73.74-157.71,148.76-229.18,181.82-46.7,21.6-139.59,56.39-189.69,44.34-44.98-10.82-19.45-59.14.8-81.23.51-.55,2.01-3.58,3.21-2.28Z" style="fill:#152a3d;"/><path d="M189.01,321.54l-48,17v-197c15.88,13.25,32.96,25.27,47.8,39.7l.2,140.3Z" style="fill:#152a3d;"/><path d="M224.01,411.54l1.49-74.01,47.51-23.99v18h69l-22.46,43.09-46.12.86.58,49.05c-16.85.48-35.51-4.45-50-13Z" style="fill:#f46529;"/><path d="M369.01,52.55c.57,2.31-.45,1.64-1.26,2.28-6.7,5.25-13.95,9.92-20.39,15.55-59.27-22.42-127.94-16.89-183.04,14.01-1.54.14-15.49-14.35-18.31-16.36-.4-1.99.43-1.22,1.27-1.7,67.29-39.09,149.87-43.23,221.73-13.77Z" style="fill:#172737;"/><path d="M25.02,284.54c-2.59-81.19,38.41-159.47,103.98-206-1.48,7.45,3.38,22.61.49,28.98-1.13,2.48-16.91,15.68-20.51,19.49-33.64,35.66-55.83,83.65-59.18,132.82l-24.79,24.7Z" style="fill:#172737;"/><path d="M424.99,104.54l-14.12-41.85c-8.42,1.11-16.9.53-25.36.87-5.33.22-10.14,1.29-16.03.99-1.13-.06-2.75.65-2.48-.99l83.98-55.01-26,95.99Z" style="fill:#f46428;"/><path d="M389.01,257.54l-23.5,45h-72.5l44.72-28.78c3.37-1.41,20.42-16.22,21.78-16.22h29.5Z" style="fill:#f46529;"/><path d="M398.01,180.54c-15.02,17.16-31.83,32.57-49.5,47l-.5-44c.82-.68,1.68-2.45,2.97-3.51l46.53-38.48.5,39Z" style="fill:#152a3d;"/><path d="M306.01,257.54c-2.67,3.47-7.34,5.97-11.08,8.42-22.02,14.38-45.38,26.87-68.91,38.58v-47s79.99,0,79.99,0Z" style="fill:#f46529;"/><path d="M129.78,218.33c-.56.98-15.61,11.08-18.25,13.24-26.48,21.62-74.69,68.15-74.6,104.47,0,3.57,2.08,6.96,1.58,10.5-22.41-21.64,4.47-58.56,20.47-76.52,20.68-23.22,45.53-42.22,70.53-60.47.62,1.81,1.03,7.47.27,8.78Z" style="fill:#f46428;"/></svg>