<?xml version="1.0" encoding="UTF-8"?><svg id="Layer_1" xmlns="http://www.w3.org/2000/svg" viewBox="0 0 512 512"><rect width="512" height="512" style="fill:#00005b;"/><path d="M54.71,398.17L136.24,106.81h77.46l77.2,291.36h-70.83l-11.47-47.05h-72.87l-11.47,47.05H54.71ZM195.61,285.92c-11.21-47.05-17.07-74.28-22.68-101.93-5.86,27.65-11.72,54.47-23.95,101.93h46.63Z" style="fill:#99f;"/><path d="M379.07,405.19c-54.27,0-84.34-41.68-84.34-112.66s32.36-111.84,80.52-111.84c56.31,0,82.05,49.11,82.05,130h-102.94c.76,26,13.5,33.02,25.23,33.02,9.43,0,19.11-7.02,21.15-23.11l54.53,17.33c-10.19,41.68-38.22,67.27-76.19,67.27ZM378.56,238.05c-12.23,0-21.91,7.84-24.21,27.65h46.12c-1.53-18.98-10.19-27.65-21.91-27.65Z" style="fill:#99f;"/></svg>