<?xml version="1.0" encoding="UTF-8"?><svg id="Layer_1" xmlns="http://www.w3.org/2000/svg" viewBox="0 0 384 384"><rect width="384" height="384" style="fill:#fff;"/><g id="ffPOon.tif"><path d="M254.93,12.73h55.92v358.13H71.54v-55.16h.82c4.93,54.56,77.15,73.42,108.4,27.43,15.13-22.27,9.92-65.45,10.02-92.47.06-16.45-.03-32.94,0-49.4,3.49,10.37,6.39,19.47,13.56,28,37.75,44.88,110.08,14.19,104.75-43.95-2.4-26.18-25.42-50.38-51.7-53.21,23.33-3.94,43.14-19.85,49.56-43.01,9.9-35.72-14.84-72.66-52.02-75.55v-.82Z" style="fill:#fdfefe;"/><path d="M190.78,132.11c0,16.45.02,32.94,0,49.4,0,6.58.01,13.18,0,19.76-.03,16.45.06,32.94,0,49.4h-65.79c-3.38-1.08-6.84-1.43-10.29-2.46-16.85-4.98-30.35-17.3-37.55-33.21l-5.61-17.85v-11.53l5.61-17.85c7.84-18.46,27.66-33.7,47.84-35.66s45.46,0,65.79,0Z" style="fill:#a259fe;"/><path d="M190.78,13.56v118.55c-20.33,0-46.19-1.91-65.79,0-1.47-.68-3.1-1.01-4.75-1.29-2.76-.47-4.76-.92-4.94-.94-4.23-.66-47.94-26.9-42.15-65.67,5.02-33.63,42.26-49.65,53.48-50.64,19.5-1.72,44.04,0,64.14,0Z" style="fill:#f14e1f;"/><path d="M125,132.11c-20.19,1.97-40,17.2-47.84,35.66-1.87-29.73-3.74-59.45-5.61-89.18,2.47,1.97,2.03,6.78,2.87,9.89,5.28,19.49,21.39,35.96,40.89,41.39,3.2.89,6.74.88,9.69,2.24Z" style="fill:#fdfbfc;"/><path d="M125,250.66c-27.09,3.45-50.11,26.04-52.63,53.51h-.82v-107.03l5.61,17.85c7.2,15.91,20.7,28.23,37.55,33.21,3.46,1.02,6.91,1.38,10.29,2.46Z" style="fill:#fbfcfd;"/><path d="M126.64,12.73v.82c-27.53,2.43-49.25,23.66-53.48,50.64-.24,1.53,1.04,3.33-1.62,2.87V12.73h55.1Z" style="fill:#fefbfa;"/><path d="M254.93,12.73v.82c-19.89-1.55-43.79,0-64.14,0s-44.64-1.72-64.14,0v-.82h128.29Z" style="fill:#fdeae6;"/><path d="M72.36,315.7h-.82v-11.53h.82c-.29,3.16-.29,8.36,0,11.53Z" style="fill:#e5f9f1;"/><path d="M254.93,13.56c37.19,2.89,61.92,39.83,52.02,75.55-6.42,23.15-26.22,39.07-49.56,43.01-3.52-.38-10.45-.36-13.98,0h-52.63V13.56c20.36,0,44.25-1.55,64.14,0Z" style="fill:#fe7262;"/><path d="M125,250.66h65.79c-.1,27.02,5.11,70.2-10.02,92.47-31.25,45.99-103.47,27.13-108.4-27.43-.29-3.16-.29-8.37,0-11.53,2.52-27.47,25.54-50.07,52.63-53.51Z" style="fill:#0bce83;"/><path d="M257.39,132.11c26.29,2.83,49.3,27.03,51.7,53.21,5.33,58.14-67,88.83-104.75,43.95-7.17-8.53-10.07-17.63-13.56-28,.01-6.58,0-13.18,0-19.76l7.56-19.18c8.62-15.65,27.15-28.38,45.07-30.21,3.53-.36,10.46-.38,13.98,0Z" style="fill:#1bbcfd;"/><path d="M243.41,132.11c-17.92,1.83-36.45,14.56-45.07,30.21l-7.56,19.18c.02-16.45,0-32.94,0-49.4h52.63Z" style="fill:#f9fbfd;"/></g></svg>