<?xml version="1.0" encoding="UTF-8"?><svg id="Layer_1" xmlns="http://www.w3.org/2000/svg" viewBox="0 0 384 383.36"><path d="M0,0h384v383.36H0V0ZM201.16,93.92c-4.98.83-9.85,5.63-11.4,10.38-5.26,16.16,15.25,29.23,25.39,14.28,7.16-10.55-.84-26.84-14-24.66ZM258.25,123.9h-23.95c-.43,1.06.75,2.26.75,2.64v15.46h-9.73v20.36l9.73-.75v49.4c0,3.34,2.7,12.09,4.36,15.22,7.55,14.27,27.19,12.02,39.81,7.03v-21.12c-6,2.03-13.97,6.06-18.72-.37-.52-.71-2.24-4.01-2.24-4.53v-45.63l20.96.75v-20.36h-20.96v-18.1ZM181.89,141.25c-6.8.83-15.22,4.86-22.07,4.58-2.45-.1-7.16-3.18-10.28-4.03-25.56-6.99-49.66,14.52-43.79,41.11,1.82,8.23,7.81,19.04,16.26,21.72.57,2.04-1.3,1.4-2.25,2.59-5.34,6.74-5.39,18.03.35,24.59.78.89,1.8,1.05,2.17,1.4,1.89,1.78-1.01,1.55-2.28,2.17-13.19,6.37-19.19,16.31-15.17,31.42,7.27,27.29,72.06,29.28,75.55-6,1.38-13.91-1.32-22.15-14.45-27.66-5.86-2.46-25.83-5.5-27.25-11.74-2.98-13.08,9.9-11.26,18.04-15.37,14.78-7.46,21.1-25.67,16.96-41.36l8.21-2.29v-21.12ZM214.83,142.01h-23.2v93.52h23.2v-93.52Z" style="fill:#f05233;"/><path d="M181.89,141.25v21.12l-8.21,2.29c4.14,15.69-2.18,33.9-16.96,41.36-8.14,4.11-21.03,2.29-18.04,15.37,1.42,6.24,21.39,9.28,27.25,11.74,13.14,5.51,15.83,13.75,14.45,27.66-3.49,35.28-68.28,33.28-75.55,6-4.02-15.11,1.98-25.05,15.17-31.42,1.27-.61,4.17-.39,2.28-2.17-.37-.35-1.39-.51-2.17-1.4-5.74-6.56-5.69-17.86-.35-24.59.95-1.2,2.82-.56,2.25-2.59-8.44-2.67-14.44-13.48-16.26-21.72-5.87-26.59,18.23-48.1,43.79-41.11,3.12.85,7.83,3.93,10.28,4.03,6.85.28,15.27-3.75,22.07-4.58ZM136.78,160.28c-10.63,2.21-13.29,24.1-2.71,28.79,24.19,10.7,26.14-33.66,2.71-28.79ZM137.57,246.3c-16.71,2.02-16.69,19.67-.87,21.58,8.78,1.06,23.65.78,22.76-11.59-.72-10.03-14.29-10.9-21.89-9.99Z" style="fill:#fefcfc;"/><path d="M258.25,123.9v18.1h20.96v20.36l-20.96-.75v45.63c0,.52,1.71,3.82,2.24,4.53,4.75,6.43,12.72,2.4,18.72.37v21.12c-12.62,4.99-32.26,7.25-39.81-7.03-1.66-3.13-4.36-11.89-4.36-15.22v-49.4l-9.73.75v-20.36h9.73v-15.46c0-.38-1.18-1.58-.75-2.64h23.95Z" style="fill:#fefcfc;"/><rect x="191.63" y="142.01" width="23.2" height="93.52" style="fill:#fefdfd;"/><path d="M201.16,93.92c13.16-2.18,21.15,14.11,14,24.66-10.15,14.95-30.66,1.88-25.39-14.28,1.55-4.75,6.42-9.56,11.4-10.38Z" style="fill:#fefcfc;"/><path d="M136.78,160.28c23.43-4.87,21.48,39.49-2.71,28.79-10.58-4.68-7.92-26.58,2.71-28.79Z" style="fill:#f05233;"/><path d="M137.57,246.3c7.6-.92,21.17-.05,21.89,9.99.89,12.37-13.98,12.65-22.76,11.59-15.82-1.91-15.83-19.56.87-21.58Z" style="fill:#f05233;"/></svg>