<?xml version="1.0" encoding="UTF-8"?><svg id="Layer_1" xmlns="http://www.w3.org/2000/svg" viewBox="0 0 515.98 512"><g id="IamuVL"><path d="M515.98,0v512s-515.98,0-515.98,0V0s515.98,0,515.98,0ZM473.32,53.28H51.62s0,411.71,0,411.71h421.71s0-411.71,0-411.71Z" style="fill:#261300;"/><path d="M473.32,53.28v411.71s-421.71,0-421.71,0V53.28s421.71,0,421.71,0ZM454.99,71.62H69.95s0,375.04,0,375.04h385.04s0-375.04,0-375.04Z" style="fill:#261300;"/><path d="M454.99,71.62v375.04s-385.04,0-385.04,0V71.62s385.04,0,385.04,0ZM336.16,155.32c-18.03,4.13-17.09,39.7,9.22,35.95,23.2-3.3,19.31-42.49-9.22-35.95ZM298.31,353.31c-18.09-64.71-36.4-129.9-57.35-193.51-2.87-2.21-34.16-2.46-37.68-.7-1.48.74-2.37,2.25-2.88,3.79l-55.44,190.42h32.5s2.14-2.86,2.14-2.86l13.5-51.17,56.64-.75,15.22,54.79h33.34ZM358.31,209.97h-31.67s0,143.35,0,143.35h31.67s0-143.35,0-143.35Z" style="fill:#261300;"/><path d="M298.31,353.31h-33.34s-15.22-54.79-15.22-54.79l-56.64.75-13.5,51.17-2.14,2.86h-32.5s55.44-190.42,55.44-190.42c.5-1.54,1.4-3.05,2.88-3.79,3.52-1.76,34.81-1.51,37.68.7,20.95,63.61,39.26,128.79,57.35,193.51ZM201.63,269.97h40s-19.19-80.02-19.19-80.02l-20.82,80.02Z" style="fill:#fb7d18;"/><rect x="326.64" y="209.97" width="31.67" height="143.35" style="fill:#fb7d18;"/><path d="M336.16,155.32c28.54-6.54,32.42,32.65,9.22,35.95-26.31,3.75-27.26-31.82-9.22-35.95Z" style="fill:#fb7d18;"/><polygon points="201.63 269.97 222.45 189.95 241.63 269.97 201.63 269.97" style="fill:#261300;"/></g></svg>