<?xml version="1.0" encoding="UTF-8"?>
<svg id="Layer_1" xmlns="http://www.w3.org/2000/svg" version="1.1" viewBox="0 0 512 512">
  <!-- Generator: Adobe Illustrator 29.6.1, SVG Export Plug-In . SVG Version: 2.1.1 Build 9)  -->
  <defs>
    <style>
      .st0 {
        fill: #fff;
      }

      .st1 {
        fill: #efda4f;
      }
    </style>
  </defs>
  <path class="st1" d="M512,0v512H0V0h512ZM451.87,271.88c1.6-2.53-5.06-11.12-6.9-13.36-39.61-48.19-132.81-26.93-127.96,41.96,2.07,29.37,19.11,46.33,43.77,59.23,14.28,7.47,41.36,15.41,52.14,25.86,12.97,12.57,6.82,31.59-9.7,37.15-24.63,8.29-48.9-3.44-61.21-25.28l-1.36-.35-36.74,21.55c18.96,43.47,76.72,57.42,119.04,42.82,35.98-12.41,51.6-46.29,40.76-82.67-10.13-33.99-46.96-44.26-75.07-57.93-11.07-5.38-23.76-10.29-24.67-24.32-1.61-24.6,27.18-28.56,43.04-15.05,2.84,2.42,8.47,11.55,10.47,11.53,3.86-.04,27.9-19.79,34.39-21.14ZM278,236h-47v164.5c0,.75-1.14,7.42-1.44,8.56-4.13,16.23-23.34,19.66-36.88,12.76-7.92-4.03-12.7-13.64-17.2-20.84l-37.35,22.15c-2.66,4.19,13.68,22.65,17.35,25.9,40.29,35.72,122.53,17.74,122.53-43.53v-169.5Z"/>
  <path class="st0" d="M451.87,271.88c-6.49,1.35-30.54,21.1-34.39,21.14-2.01.02-7.63-9.11-10.47-11.53-15.86-13.51-44.65-9.55-43.04,15.05.92,14.03,13.6,18.94,24.67,24.32,28.12,13.67,64.95,23.94,75.07,57.93,10.84,36.38-4.77,70.26-40.76,82.67-42.32,14.6-100.08.65-119.04-42.82l36.74-21.55,1.36.35c12.31,21.84,36.58,33.57,61.21,25.28,16.52-5.56,22.67-24.58,9.7-37.15-10.78-10.45-37.86-18.39-52.14-25.86-24.66-12.9-41.7-29.86-43.77-59.23-4.85-68.9,88.35-90.15,127.96-41.96,1.83,2.23,8.49,10.83,6.9,13.36Z"/>
  <path class="st0" d="M278,236v169.5c0,61.27-82.23,79.25-122.53,43.53-3.67-3.25-20.01-21.71-17.35-25.9l37.35-22.15c4.5,7.2,9.29,16.81,17.2,20.84,13.55,6.9,32.76,3.47,36.88-12.76.29-1.14,1.44-7.82,1.44-8.56v-164.5h47Z"/>
</svg>