<?xml version="1.0" encoding="UTF-8"?><svg id="Layer_1" xmlns="http://www.w3.org/2000/svg" viewBox="0 0 191.24 193.11"><g id="ugIsQp.tif"><path d="M102,0l11.64,1.61c80.9,16.2,105.35,119.54,40.59,171.49-1.07.86-4.66,3.66-5.68,4.05-.34.13-.61.4-1,.12L68.57,56.8c-3.06-3.6-12.34-3.66-12.51,2.4l.05,85.52c.69,5.42,10.31,5.85,12.61,1.85.15-.25.8-2.06.8-2.19v-63.32l68.69,101.79c-.01.9-12.24,5.37-13.89,5.89C69.46,205.92,12.15,170.58,1.69,114.75L.08,103.1c.18-4.2-.24-8.51,0-12.7C2.87,42.59,42.68,2.8,90.43,0h11.57ZM135.6,132.98V55.85c0-.1-.8-1.47-.96-1.65-2.43-2.72-11.01-2.8-12.4,1.36.04,19.26-.48,38.67.27,57.85l13.09,19.58Z" style="fill:#fff;"/></g></svg>