<?xml version="1.0" encoding="UTF-8"?><svg id="Layer_1" xmlns="http://www.w3.org/2000/svg" viewBox="0 0 384 384"><rect width="384" height="384" style="fill:#fff;"/><g id="A6aXEt.tif"><path d="M189.02,374.92H25.55V114.12h1.43l-.03,157.58c.96,9.28,5.72,16.53,13.36,21.64,10.89,7.29,43.85,25.51,55.77,27.78,28.74,5.49,51.1-6.74,53.01-37.27l-.35-156.94c-.16-.57-.34-1.09-.88-1.42-1.69-1.06-21.46-1.08-22.8-.02-.56.44-.79,1.21-.98,1.88-1.75,51.99-.17,104.3-.8,156.4-12.94,33.72-50.73-3.34-70.15-11.12l-1.74-2.55.17-156.01,1.45-2.12L191.52,34.02l3.02.63c45.82,26.06,92.27,51.23,137.58,78.08l1.14,4.58v150.11c.14,2.21-.86,3.97-2.52,5.33l-137.43,77.58c-1.77.68-3.42-.68-5.01-1.48-11.65-5.83-22.64-14.35-34.68-19.66-2.58-.26-8.28,3.85-11.23,5.12-2.78,1.19-11.88,3.8-13.31,5.25-2.28,2.31,4.89,5.8,6.64,6.89,12.36,7.7,29.7,18.44,42.58,24.54,3.7,1.75,6.97,2.54,10.72,3.92ZM214.58,120.76c-28.25,2.51-54.3,20.35-47.35,51.97,8.31,37.86,70.42,26.79,97.95,38.43,8.44,3.57,10.54,6.81,9.51,16.21-1.67,15.18-24.99,17.18-36.74,17.53-16.6.49-42.75-.26-48.96-18.94-1.2-3.62-.73-9.08-4.44-10.56-2.63-1.05-19.05-1.04-21.19.57-3.76,2.83.19,17,1.76,21.03,8.16,20.98,31.43,28.55,52.11,30.73,31.64,3.34,83.37-1.78,85.29-43.23,2.09-45.21-56.97-41.42-87.94-47.72-11.45-2.33-22.54-3.31-20.49-17.95,2.26-16.15,33.96-15.59,45.97-14.7,10.64.79,22.53,4.33,27.77,14.36,1.52,2.9,3.29,11.45,5.45,12.41,1.38.61,18.24.74,20.31.35,6.72-1.26.88-17.72-.93-21.9-12.26-28.27-51.31-30.98-78.08-28.6Z" style="fill:#fefefd;"/><path d="M357.5,114.83c-2.25,50.91,3.01,104.44,0,155.05-.62,10.38-5.41,18.6-14.33,23.88-45.1,23.27-88.59,52.67-133.67,75.56-4.99,2.53-9.24,4.33-14.76,5.59h-5.71c-3.75-1.38-7.03-2.16-10.72-3.92-12.88-6.1-30.22-16.85-42.58-24.54-1.75-1.09-8.92-4.58-6.64-6.89,1.43-1.45,10.53-4.06,13.31-5.25,2.95-1.27,8.65-5.38,11.23-5.12,12.04,5.31,23.02,13.82,34.68,19.66,1.59.79,3.24,2.16,5.01,1.48l137.43-77.58c1.66-1.36,2.65-3.12,2.52-5.33V117.3s-1.14-4.58-1.14-4.58c-45.31-26.84-91.76-52.01-137.58-78.08l-3.02-.63L53.02,111.96l-1.45,2.12-.17,156.01,1.74,2.55c19.42,7.78,57.2,44.84,70.15,11.12.63-52.1-.95-104.41.8-156.4.19-.67.42-1.44.98-1.88,1.34-1.07,21.11-1.05,22.8.02.53.33.72.85.88,1.42l.35,156.94c-1.9,30.52-24.26,42.75-53.01,37.27-11.92-2.27-44.87-20.49-55.77-27.78-7.64-5.11-12.4-12.36-13.36-21.64l.03-157.58c.3-9.06,5.33-17.57,12.91-22.45,47.66-26.51,94.63-54.43,142.72-80.09,8.45-2.59,15.32-1.92,23.33,1.66l139.1,78.71c7.52,5.06,12.47,13.74,12.47,22.88Z" style="fill:#8cc84c;"/><path d="M25.55,114.12V9.08h332.66v105.75h-.71c0-9.14-4.96-17.82-12.47-22.88L205.92,13.24c-8.01-3.59-14.88-4.26-23.33-1.66-48.08,25.66-95.05,53.57-142.72,80.09-7.58,4.88-12.61,13.39-12.91,22.45h-1.43Z" style="fill:#fefefe;"/><path d="M358.21,269.88v105.04h-163.48c5.52-1.26,9.77-3.06,14.76-5.59,45.09-22.9,88.58-52.29,133.67-75.56,8.92-5.28,13.72-13.5,14.33-23.88h.71Z" style="fill:#fefefe;"/><path d="M358.21,269.88h-.71c3.01-50.61-2.25-104.14,0-155.05h.71v155.05Z" style="fill:#fefefd;"/><path d="M214.58,120.76c26.77-2.37,65.82.33,78.08,28.6,1.81,4.17,7.65,20.64.93,21.9-2.07.39-18.93.26-20.31-.35-2.16-.96-3.93-9.5-5.45-12.41-5.24-10.03-17.13-13.57-27.77-14.36-12.01-.89-43.71-1.45-45.97,14.7-2.05,14.63,9.04,15.62,20.49,17.95,30.97,6.3,90.03,2.51,87.94,47.72-1.91,41.45-53.65,46.57-85.29,43.23-20.67-2.19-43.95-9.75-52.11-30.73-1.56-4.03-5.52-18.2-1.76-21.03,2.14-1.61,18.56-1.61,21.19-.57,3.71,1.48,3.24,6.94,4.44,10.56,6.2,18.67,32.36,19.43,48.96,18.94,11.75-.35,35.07-2.35,36.74-17.53,1.03-9.4-1.07-12.64-9.51-16.21-27.54-11.64-89.64-.57-97.95-38.43-6.94-31.62,19.11-49.47,47.35-51.97Z" style="fill:#8cc84c;"/></g></svg>