<?xml version="1.0" encoding="UTF-8"?><svg id="Layer_1" xmlns="http://www.w3.org/2000/svg" viewBox="0 0 512 512"><rect width="512" height="512" style="fill:#001e36;"/><path d="M135.81,389.85H61.59V121.77c38.82,1.64,79.4-2.17,118.02-.05,48.49,2.67,96.15,24.97,104.34,77.34,10.11,64.69-33.38,110.94-96.64,115.45-15.12,1.08-33.12-1.75-47.68-.04-1.12.13-3.82.5-3.82,1.72v73.67ZM176.8,184.91c-1.88-1.32-35.57,1-40.99,0v66.47h41.54c1.65,0,13.74-4.13,15.74-5.31,20.4-12.03,19.19-46.25-2.25-56.93-7.03-3.5-13.95-4.16-14.05-4.23Z" style="fill:#31a7fe;"/><path d="M448.2,188.23v59.82c-19.77-9.08-46.93-18.93-68.97-15.24-8.83,1.48-13.92,10.17-5.63,16.18,9.38,6.81,36.9,11.98,49.87,17.7,32.81,14.47,47.61,40.67,37.46,76.62-15.63,55.38-90.51,56.99-135.93,44.01-4.39-1.25-23.07-7.4-24.69-10.76l.57-60.93c9.49,4.32,18.35,9.74,28.22,13.31,13.24,4.79,34.93,10.41,48.77,8.85,8.09-.92,18.21-6.71,12.8-16.13-4.25-7.39-38.79-15.64-48.77-19.91-21.55-9.23-40.56-23.68-43.1-48.84-8.15-80.64,95.25-87.12,149.41-64.67Z" style="fill:#31a7fe;"/></svg>