<?xml version="1.0" encoding="UTF-8"?><svg id="Layer_1" xmlns="http://www.w3.org/2000/svg" viewBox="0 0 512 512"><rect width="512" height="512" style="fill:#00005b;"/><path d="M82.68,397.2V114.8h85.6c45.6,0,68,7.2,80.8,15.2,20.4,12,35.2,37.2,35.2,74,0,33.6-13.2,61.2-34.4,75.6-15.6,10.4-42.8,17.2-76.4,17.2h-32.4v100.4h-58.4ZM169.08,243.2c14.4,0,31.2-1.6,38.8-6.4,10.4-6,15.6-16.4,15.6-31.2,0-10.4-3.2-20.8-9.6-26.8-8.8-8-23.6-9.6-42.4-9.6h-30.4v74h28Z" style="fill:#99f;"/><path d="M317.48,397.2v-202h51.6v29.6c9.2-20,24.4-32.4,43.2-32.4,5.2,0,10,.4,15.6,2.4v55.2c-6.8-4-14-5.2-19.6-5.2-10.4,0-19.6,4.4-26,12.8-8.8,11.6-11.2,24.8-11.2,50v89.6h-53.6Z" style="fill:#99f;"/></svg>