<?xml version="1.0" encoding="UTF-8"?><svg id="Layer_1" xmlns="http://www.w3.org/2000/svg" viewBox="0 0 513.44 494.51"><path d="M0,0v494.51h513.44V0H0ZM404.45,345.22c3.17,32.16,5.79,69.03-14.19,96.69-33.21,45.97-96.89,16.14-131.47-12.4-34.58,28.54-98.26,58.38-131.47,12.4-19.98-27.66-17.36-64.53-14.19-96.69-40.54-15.49-94.91-51.46-78.21-102.56,10.56-32.31,48.61-53.21,78.21-65.05-3.05-30.89-5.56-65.34,11.6-92.82,8.36-13.39,22.87-24.69,38.93-26.86,35.89-4.86,67.85,14.75,95.13,35.4,34.58-28.54,98.26-58.38,131.47-12.4,19.95,27.62,17.31,64.58,14.19,96.69,27.37,11.31,59.19,28.38,73.67,55.4,28.84,53.82-29.5,95.79-73.67,112.21Z" style="fill:#20242a;"/><path d="M163.66,57.92c35.89-4.86,67.85,14.75,95.13,35.4,34.58-28.54,98.26-58.38,131.47-12.4,19.95,27.62,17.31,64.58,14.19,96.69,27.37,11.31,59.19,28.38,73.67,55.4,28.84,53.82-29.5,95.79-73.67,112.21,3.17,32.16,5.79,69.03-14.19,96.69-33.21,45.97-96.89,16.14-131.47-12.4-34.58,28.54-98.26,58.38-131.47,12.4-19.98-27.66-17.36-64.53-14.19-96.69-40.54-15.49-94.91-51.46-78.21-102.56,10.56-32.31,48.61-53.21,78.21-65.05-3.05-30.89-5.56-65.34,11.6-92.82,8.36-13.39,22.87-24.69,38.93-26.86ZM134.31,169.82l64.41-13.63c13.51-16.52,27.16-32.92,42.64-47.64-24.33-21.64-78.56-48.56-99.54-9.26-11.25,21.07-9.24,47.52-7.5,70.54ZM383.27,169.82c2.44-25.8,4.39-68.54-20.2-84.92s-67.21,6.15-86.84,23.65c15.47,14.72,29.13,31.12,42.64,47.64l64.41,13.63ZM287.81,154.34c.94-.8-7.32-10.45-8.36-11.62-2.55-2.87-18.7-19.38-20.66-19.38-10.9,8.05-19.92,18.97-29.02,29.09-.54,2.82,1.3,1.91,3.25,1.97,3.87.11,7.49-1.26,11.51-1.4,14.48-.51,28.88.35,43.27,1.34ZM238.53,175.36c-6.58.33-21.88.54-27.19,2.48-4.64,1.7-26.99,39.61-30.82,46.58-4.38,7.97-15.17,26.7-17.28,34.4-.5,1.82-.92,3.38,0,5.18,13.59,28.02,27.99,55.93,47.2,80.59,21.51,3.24,44.7,4.25,66.47,3.32,6.26-.27,14.38-.78,20.56-1.37,2.26-.22,7.97-1.05,9.67-1.94,4.21-2.22,26.21-39.42,29.92-46.19,4.1-7.47,15.37-27.44,17.28-34.4.62-2.25.62-2.93,0-5.18-2.55-9.29-16.94-33.89-22.44-43.43-7.42-12.86-15.62-25.46-24.73-37.19-22.66-3.26-45.76-4-68.64-2.84ZM180.74,181.44c-5.49,1.57-38.83,7.62-40.72,10.23-3.16,4.38,9.22,34.38,9.78,41.37l2.88-1.66,28.06-49.93ZM367.79,233.04c.57-7.19,12.92-36.65,9.76-41.34-1.88-2.78-35.15-8.95-40.7-10.26l28.06,49.93,2.88,1.66ZM118.81,199.49c-34.33,12.12-87.71,47.69-54.2,88.4,13.39,16.27,34.16,27.83,53.55,35.47,4.94-20.97,11.47-41.59,20-61.39-7.37-20.47-16.01-40.77-19.35-62.47ZM398.76,322.05c3.62,3.6,35.97-16.9,40.61-20.68,54.43-44.28,6.05-83.69-39.95-101.9-4.8,20.99-11.56,41.58-20,61.39,7.21,20.11,15.71,39.99,19.34,61.19ZM152.34,289.8c-3.29-.53-2,.29-2.68,1.8-1.63,3.61-3.12,9.62-4.39,13.68-1.41,4.52-7.22,22.91-5.23,25.85,1.81,2.67,35.18,8.88,40.7,10.26l-28.39-51.59ZM367.79,289.8l-2.88,1.66-28.06,49.93c5.51-1.38,38.9-7.59,40.7-10.26,3.16-4.69-9.19-34.15-9.76-41.34ZM134.31,353.01c-2.44,25.81-4.39,68.55,20.21,84.93s67.37-6.17,86.84-23.65c-15.48-14.76-28.99-31.25-42.64-47.64l-64.41-13.64ZM383.27,353.01l-64.41,13.63c-13.51,16.52-27.16,32.92-42.64,47.64,25.09,21.62,77.82,48.61,99.55,9.27,11.43-20.69,9.1-47.84,7.5-70.54ZM287.81,368.5c-13.97.97-27.93,1.83-41.98,1.34-4.4-.15-8.38-1.63-12.82-1.39-1.94.11-3.77-.91-3.23,1.95,9.34,9.9,17.97,21.16,29.02,29.09,1.91,0,19.38-17.72,21.95-20.67,1-1.15,8.03-9.52,7.07-10.33Z" style="fill:#61d7f7;"/><path d="M238.53,175.36c22.88-1.16,45.98-.42,68.64,2.84,9.11,11.74,17.31,24.33,24.73,37.19,5.5,9.54,19.89,34.13,22.44,43.43.62,2.25.62,2.93,0,5.18-1.91,6.96-13.18,26.92-17.28,34.4-3.71,6.77-25.71,43.97-29.92,46.19-1.7.89-7.41,1.72-9.67,1.94-6.18.6-14.3,1.11-20.56,1.37-21.77.94-44.96-.07-66.47-3.32-19.21-24.66-33.61-52.57-47.2-80.59-.92-1.8-.5-3.36,0-5.18,2.11-7.7,12.9-26.43,17.28-34.4,3.83-6.97,26.18-44.88,30.82-46.58,5.31-1.95,20.61-2.15,27.19-2.48ZM252.67,217.89c-52.96,7.17-47.19,94.2,15.04,85.99,51.76-6.83,44.9-94.11-15.04-85.99Z" style="fill:#20252b;"/><path d="M118.81,199.49c3.33,21.7,11.98,42,19.35,62.47-8.54,19.8-15.07,40.43-20,61.39-19.39-7.64-40.16-19.2-53.55-35.47-33.51-40.71,19.87-76.27,54.2-88.4Z" style="fill:#20252b;"/><path d="M398.76,322.05c-3.63-21.2-12.13-41.08-19.34-61.19,8.44-19.81,15.2-40.39,20-61.39,46,18.21,94.38,57.62,39.95,101.9-4.64,3.77-36.98,24.28-40.61,20.68Z" style="fill:#20252b;"/><path d="M134.31,353.01l64.41,13.64c13.64,16.4,27.16,32.88,42.64,47.64-19.47,17.48-62.02,40.18-86.84,23.65s-22.64-59.12-20.21-84.93Z" style="fill:#20252b;"/><path d="M134.31,169.82c-1.74-23.02-3.75-49.47,7.5-70.54,20.99-39.3,75.21-12.38,99.54,9.26-15.47,14.72-29.13,31.12-42.64,47.64l-64.41,13.63Z" style="fill:#20252b;"/><path d="M383.27,169.82l-64.41-13.63c-13.51-16.52-27.16-32.92-42.64-47.64,19.63-17.5,61.88-40.27,86.84-23.65s22.65,59.12,20.2,84.92Z" style="fill:#20252b;"/><path d="M383.27,353.01c1.61,22.7,3.93,49.85-7.5,70.54-21.73,39.34-74.45,12.36-99.55-9.27,15.47-14.72,29.13-31.12,42.64-47.64l64.41-13.63Z" style="fill:#20252b;"/><path d="M367.79,233.04l-2.88-1.66-28.06-49.93c5.55,1.31,38.82,7.48,40.7,10.26,3.16,4.69-9.19,34.15-9.76,41.34Z" style="fill:#22282f;"/><path d="M152.34,289.8l28.39,51.59c-5.51-1.38-38.89-7.59-40.7-10.26-1.99-2.94,3.82-21.33,5.23-25.85,1.27-4.05,2.76-10.07,4.39-13.68.68-1.52-.61-2.33,2.68-1.8Z" style="fill:#22282f;"/><path d="M367.79,289.8c.57,7.19,12.92,36.65,9.76,41.34-1.8,2.67-35.19,8.88-40.7,10.26l28.06-49.93,2.88-1.66Z" style="fill:#22282f;"/><path d="M180.74,181.44l-28.06,49.93-2.88,1.66c-.56-6.99-12.94-36.98-9.78-41.37,1.89-2.62,35.23-8.67,40.72-10.23Z" style="fill:#22282f;"/><path d="M287.81,368.5c.96.82-6.07,9.18-7.07,10.33-2.56,2.95-20.04,20.67-21.95,20.67-11.05-7.93-19.68-19.19-29.02-29.09-.54-2.86,1.29-1.85,3.23-1.95,4.44-.24,8.42,1.23,12.82,1.39,14.06.49,28.01-.38,41.98-1.34Z" style="fill:#22282f;"/><path d="M287.81,154.34c-14.39-1-28.8-1.85-43.27-1.34-4.03.14-7.65,1.52-11.51,1.4-1.95-.06-3.79.85-3.25-1.97,9.1-10.12,18.11-21.03,29.02-29.09,1.96,0,18.11,16.51,20.66,19.38,1.04,1.17,9.3,10.82,8.36,11.62Z" style="fill:#22282f;"/><path d="M252.67,217.89c59.94-8.12,66.8,79.16,15.04,85.99-62.23,8.21-67.99-78.82-15.04-85.99Z" style="fill:#61d8f8;"/></svg>