<?xml version="1.0" encoding="UTF-8"?><svg id="Layer_1" xmlns="http://www.w3.org/2000/svg" viewBox="0 0 384 384"><rect width="384" height="384" style="fill:#fff;"/><g id="KuYFSV.tif"><path d="M184.58,286.1H14.59V73.82h354.08v212.28h-169.99c2.16-.11,4.68-.57,6.91-.83,10.44-1.2,18.94-3.34,28.47-7.73,25.27-11.63,39.57-35.19,45.88-61.56-5.19,6.37-10.63,12.48-17.32,17.34-2.22,1.61-5.43,3.78-7.83,5.02-.73.37-1.71.75-2.49,1.1-.72.32-1.83.86-2.49,1.1-7.64,2.86-15.69,3.57-23.77,2.76-15.92-1.59-26.87-10.54-37.87-21.26-13.57-13.23-21.32-22.92-38.97-31.75-6.72-3.36-12.38-5.79-19.9-7.45-4.08-.9-8.29-1.47-12.44-1.93-23.23-2.62-48.23.65-67.64,14.29-18.22,12.8-29.06,33.67-34.07,54.99,9.09-11.58,20.64-22.4,35.32-26.15,12.92-3.3,27.98-1.39,39.31,5.72,2.84,1.78,5.73,4.18,8.29,6.35,5.64,4.78,10.98,10.54,16.31,15.73,12.99,12.66,24.11,22.61,41.74,28.71,8.61,2.98,19.42,5.03,28.47,5.52ZM209.46,75.48l-6.22-.83c-22.96-1.79-46.61,1.14-65.73,14.68-18.12,12.83-28.92,33.61-33.91,54.88,8.5-10.81,18.98-20.86,32.35-25.25,14.54-4.77,31.91-2.47,44.49,6.2,11.25,7.76,21.12,20.51,31.51,29.68,4.61,4.07,9.45,7.64,14.65,10.9,12.26,7.68,28.47,13.62,43.12,13.8.18,0,.37,0,.55,0,.13.36.53.27.83.28,3.98.13,7.9.31,11.89.28.69,0,1.75.22,2.21-.28,1.37-.01,2.78.07,4.15,0,.6-.03.79-.27.83-.28.82-.05,1.68.07,2.49,0,.49-.04.52-.27.55-.28.62-.06,1.32.07,1.93,0,.48-.06.52-.27.55-.28,1.04-.13,2.25-.11,3.32-.28.48-.07.52-.27.55-.28.64-.1,1.23-.15,1.93-.28,34.54-6.21,55.1-28.52,65.09-61.28.67-2.2,1.46-4.64,1.66-6.9-9.45,12.43-21.94,23.43-37.68,26.69-4.45.92-8.51,1.03-13.04.91-.82-.02-1.67.05-2.49,0-.03,0-.06-.23-.55-.28-.54-.05-1.11.04-1.66,0-.07-.28-.32-.25-.55-.28-6.08-.82-11.71-2.64-17.14-5.8-11.87-6.91-22.89-20.41-33.17-29.81-14.25-13.04-30.63-23.22-50.31-25.67-.54-.07-.87-.3-1.66-.28-.18,0-.38-.03-.55,0Z" style="fill:#fefefe;"/><path d="M226.04,243.32c.42.65.32,1.19.06,1.86-1.01,2.61-3.86,6.87-5.36,9.56-4.89,8.82-9.98,17.4-14.65,26.22-.51.97-1.88,2.07-1.64,3.32.08.44,1.36.11,1.13,1-2.23.26-4.75.72-6.91.83-4.28.22-9.82.23-14.1,0-9.05-.5-19.86-2.54-28.47-5.52-.41-1.95,1.05-3.03,1.78-4.43.36-.69.47-1.61,1.03-2.57,8.56-14.8,17.13-29.82,25.15-44.99.24-.46.88-.77,1.03-1.18.37-1.06-.7-.41-.81-.8-.13-.44-.06-3.98.85-3.16.71.65-.37,2.4-.27,2.48.92.81,1.43-1.68,1.65-2.01.28-.42,1.38-1.17,1.67-1.85,11,10.72,21.95,19.67,37.87,21.26Z" style="fill:#15bfb7;"/><path d="M210.01,75.48c-.12,1.04,1.92,1.27,1.66.28,19.67,2.46,36.05,12.63,50.31,25.67-1.23.81-1.44,3.65-2.49,4.3-.66.41-1.56-1.29-.83,1.77l-1.1-.27c-.1.62.7.8.52,1.46-.04.14-1.36,1.89-1.63,2.28-.16.23-.63.29-.76.47-.48.72.14,2.89-1.27,2.62-.36-.07-.52-.65-1.01-.49.49,1.69.26,2.79-.51,4.32-.48.97-1.69,1.95-1.98,2.49-.67,1.26-.89,2.42-1.83,3.92-1.06,1.69-1.49,3.17-2.68,4.91-.11.16-.51.24-.7.53-.44.69-.43,1.89-.73,2.32-.61.85-1.47-.57-1.79-.27l.85.98c-1,2.21-1.35,3.92-3.61,5.23-.17.59.68.24.53.8-.11.41-.65.9-.87,1.35-.75,1.54-1.49,2.2-2.12,3.41-.39.75-.38,1.7-.91,2.41-.47.63-1.43.83-1.74,1.3-.44.67-.33,2.08-.64,2.95-.39,1.07-1.61,1.96-2.06,2.91-.63,1.33-.69,2.66-1.77,4.03-.33.42-1.16.68-1.36,1.14-.18.41.25.84.03,1.37-.06.13-1.54,2.16-1.65,2.24-.47.33-1.22.21-1.27.25-.11.1.31.7.25.95-.09.39-1.08.25-.81,1.11.09.28,1.32.27.56,1.53-5.2-3.26-10.05-6.83-14.65-10.9-10.39-9.17-20.25-21.92-31.51-29.68l2.99-4.88c7.03-12.95,14.33-25.9,21.37-38.84.46-.84,1.5-1.84,2.05-2.92.83-1.61.22-2.69,2.61-3.05.17-.03.37,0,.55,0Z" style="fill:#18b6b9;"/><path d="M114.37,251.87c1.13-1.17-1.8-2.31-2.03-2.82-.28-.62-.27-1.5-.03-2.14.45-1.21,1.4-2.4,2.01-3.51,8.62-15.66,17.32-30.96,26.15-46.49,1.4-2.47,2.64-5.04,4.18-7.43,1.65-1.29,3.57,2.45,4.55.83,17.65,8.83,25.4,18.52,38.97,31.75-.29.68-1.39,1.43-1.67,1.85-.22.33-.73,2.82-1.65,2.01-.1-.09.99-1.84.27-2.48-.91-.82-.97,2.72-.85,3.16.11.39,1.18-.26.81.8-.14.41-.79.73-1.03,1.18-8.01,15.17-16.58,30.19-25.15,44.99-.56.97-.67,1.88-1.03,2.57-.73,1.4-2.19,2.48-1.78,4.43-17.63-6.09-28.74-16.05-41.74-28.71ZM184.58,222.06l1.08-.73-.67-.93c-1.05.16-.58.97-.41,1.65ZM186.79,222.61c-.68-.07-1.45-.02-1.38.83.68.07,1.45.02,1.38-.83Z" style="fill:#19b4b9;"/><path d="M209.46,75.48c-2.4.36-1.78,1.44-2.61,3.05-.55,1.07-1.59,2.07-2.05,2.92-7.04,12.93-14.34,25.88-21.37,38.84l-2.99,4.88c-12.59-8.67-29.95-10.97-44.49-6.2-13.37,4.38-23.85,14.44-32.35,25.25,4.99-21.27,15.78-42.05,33.91-54.88,19.13-13.54,42.77-16.47,65.73-14.68l6.22.83Z" style="fill:#1babba;"/><path d="M295.15,131.24c-.46.2.04.8-.05,1.19-.07.3-.55.59-.71.96-1.12,2.57-2.61,5.08-3.88,7.44-3.74,6.93-7.84,13.52-11.34,20.43-.61,1.2-1.55,2.28-2.28,3.25-.45.59-.59,1.63-.99,2.32-1.7,2.97-1.5.51-1.79.33-1.02-.64-.94,1.23-.81,1.36.2.19,1.24-.4,1.08.38s-.73,1.16-1,1.76c-.49,1.08-.85,1.66-1.3,2.57-.29.6-.47,2.03-.86,2.46-.32.36-1,.22-1.19.74-.32.87,0,2.22-.32,3.13-14.65-.18-30.86-6.12-43.12-13.8.76-1.26-.48-1.24-.56-1.53-.27-.86.72-.72.81-1.11.06-.26-.36-.85-.25-.95.05-.04.8.08,1.27-.25.11-.08,1.59-2.11,1.65-2.24.23-.52-.2-.96-.03-1.37.2-.46,1.03-.71,1.36-1.14,1.08-1.38,1.14-2.7,1.77-4.03.45-.95,1.67-1.84,2.06-2.91.31-.86.2-2.27.64-2.95.31-.47,1.27-.67,1.74-1.3.53-.71.51-1.66.91-2.41.63-1.2,1.37-1.87,2.12-3.41.22-.45.76-.94.87-1.35.15-.56-.7-.21-.53-.8,2.26-1.31,2.61-3.03,3.61-5.23l-.85-.98c.32-.3,1.19,1.13,1.79.27.3-.42.29-1.62.73-2.32.18-.29.59-.37.7-.53,1.19-1.74,1.62-3.22,2.68-4.91.94-1.5,1.17-2.66,1.83-3.92.29-.55,1.5-1.52,1.98-2.49.76-1.53,1-2.63.51-4.32.5-.16.65.42,1.01.49,1.41.27.8-1.9,1.27-2.62.12-.18.6-.25.76-.47.27-.39,1.59-2.14,1.63-2.28.17-.66-.63-.85-.52-1.46l1.1.27c-.73-3.07.17-1.37.83-1.77,1.05-.65,1.26-3.48,2.49-4.3,10.28,9.4,21.3,22.9,33.17,29.81Z" style="fill:#14c1b7;"/><path d="M116.86,180.93c-.34.53-1.12,1.71-1.49,2.11-.41.43-.72.79-1.28.93-.67,1.84-1.22,3.42-2.14,5.17-.29.55-.26.36-.9.35.56-1.48,1.62-2.87,2.14-4.36.13-.36.02-1.09.08-1.16s.65.04.83,0c.29-.8.77-1.4.83-2.21l-3.56.03c-.51,1.53-1.57,2.75-2.39,4.11-1.75,2.91-3.16,6.06-4.82,8.99-4.36,7.73-8.91,15.44-13.12,23.06-.57,1.04-4.44,7.91-4.31,8.37.04.15,2.47,1.57,2.61,1.54.49-.11.37-2.16,1.52-1.93-.43,1.3-1.31,2.38-1.1,3.86-11.33-7.11-26.39-9.02-39.31-5.72-14.68,3.75-26.23,14.57-35.32,26.15,5.01-21.32,15.85-42.19,34.07-54.99,19.41-13.64,44.41-16.91,67.64-14.29Z" style="fill:#1ca8ba;"/><path d="M301.5,178.17c.12-.91-.33-.46-.83-.42-.78.07-4.24.83-4.42.69-.04-.03-.2-.75-.25-.93l22.25-38.53c.43-.81-.88-.56-.72-1.4,4.53.11,8.6,0,13.04-.91,15.75-3.26,28.23-14.25,37.68-26.69-.2,2.26-.99,4.7-1.66,6.9-10,32.76-30.55,55.07-65.09,61.28Z" style="fill:#12c9b6;"/><path d="M295.15,131.24c5.43,3.16,11.06,4.98,17.14,5.8.07.27.32.26.55.28.54.04,1.12-.05,1.66,0l.55.28c.82.05,1.66-.02,2.49,0-.16.84,1.16.59.72,1.4l-22.25,38.53c.05.19.21.9.25.93.18.14,3.64-.63,4.42-.69.5-.04.95-.5.83.42-.71.13-1.29.17-1.93.28l-.55.28c-1.07.16-2.28.15-3.32.28l-.55.28c-.62.07-1.31-.06-1.93,0l-.55.28c-.81.07-1.67-.05-2.49,0l-.83.28c-1.37.07-2.77-.01-4.15,0-.69,0-1.75-.22-2.21.28-3.99.03-7.91-.15-11.89-.28-.14-.36-.53-.26-.83-.28-.18,0-.37,0-.55,0,.32-.91,0-2.27.32-3.13.19-.52.87-.38,1.19-.74.38-.43.56-1.86.86-2.46.45-.91.8-1.49,1.3-2.57.27-.6.85-.98,1-1.76s-.88-.19-1.08-.38c-.13-.13-.21-2,.81-1.36.29.18.09,2.64,1.79-.33.4-.69.54-1.73.99-2.32.72-.96,1.67-2.04,2.28-3.25,3.5-6.9,7.6-13.5,11.34-20.43,1.27-2.35,2.76-4.87,3.88-7.44.16-.37.64-.66.71-.96.09-.38-.41-.98.05-1.19Z" style="fill:#13c6b6;"/><path d="M149.2,190.31c-.98,1.62-2.9-2.11-4.55-.83-1.53,2.4-2.77,4.96-4.18,7.43-8.83,15.53-17.53,30.83-26.15,46.49-.61,1.11-1.56,2.3-2.01,3.51-.24.64-.25,1.52.03,2.14.23.5,3.16,1.64,2.03,2.82-5.33-5.19-10.67-10.95-16.31-15.73,1.82-1.44,2.44-3.91,3.48-5.77,8.54-15.2,17.51-30.16,25.42-45.56l2.33-1.95c7.52,1.67,13.18,4.09,19.9,7.45Z" style="fill:#1aaeb9;"/><path d="M254.79,238.35l-20.73,39.2c-9.53,4.39-18.03,6.53-28.47,7.73.23-.9-1.04-.57-1.13-1-.24-1.25,1.13-2.35,1.64-3.32,4.67-8.82,9.76-17.4,14.65-26.22,1.49-2.69,4.34-6.95,5.36-9.56.26-.67.36-1.21-.06-1.86,8.09.81,16.13.1,23.77-2.76.77.75,2.42-.05,2.49-1.1.78-.35,1.76-.73,2.49-1.1ZM249.26,244.15h-.55v.83h.55v-.83Z" style="fill:#14c5b7;"/><path d="M129.3,182.86l-2.33,1.95c-7.91,15.4-16.88,30.36-25.42,45.56-1.05,1.86-1.66,4.33-3.48,5.77-2.56-2.17-5.45-4.57-8.29-6.35-.2-1.48.67-2.57,1.1-3.86-1.15-.23-1.03,1.83-1.52,1.93-.15.03-2.57-1.4-2.61-1.54-.14-.45,3.74-7.33,4.31-8.37,4.2-7.62,8.76-15.33,13.12-23.06,1.65-2.93,3.07-6.08,4.82-8.99.81-1.36,1.87-2.57,2.39-4.11l3.56-.03c-.06.81-.53,1.41-.83,2.21-.18.04-.77-.07-.83,0s.05.8-.08,1.16c-.52,1.49-1.58,2.88-2.14,4.36.63.02.61.2.9-.35.92-1.75,1.47-3.34,2.14-5.17.56-.14.87-.5,1.28-.93.37-.39,1.15-1.58,1.49-2.11,4.15.47,8.36,1.03,12.44,1.93ZM125.15,183.69c-.5-.63-1.65,2.24,0,1.66v-1.66ZM123.21,185.62s-.79-.03-.82,0c-.28.27.48,2.71.28,3.31.87.19,1.28-.53,1.38-1.28.11-.83-.35-.52-.64-1-.16-.27-.15-1-.2-1.04ZM120.45,189.49c-.3-.3-.85.25-.55.55s.85-.25.55-.55ZM111.05,189.76c-.57-.63-1.75,2.3-1.66,2.76l1.33-1.56.32-1.19ZM119.35,193.08h-.83c-.06.51-.02.81.42,1.1h.41s0-1.1,0-1.1ZM109.12,193.35s-.98-.05-1.07.03c-.07.06-.31,1.43-.5,1.84-.17.36-.65.33-.65.51,0,.74.59,1.44,1.09.49-.09-.61,1.43-2.59,1.14-2.86ZM106.91,197.49c-.28-.28-1.11.54-.83.83s1.11-.54.83-.83ZM116.86,198.32c-1.09,0-1.1,1.1,0,1.1v-1.1ZM116.03,202.19c0-.76.26-1.97-.83-1.93v1.93s.83,0,.83,0ZM104.97,200.53c-.53-.53-1.71.88-.69,1.1.58.13.89-.9.69-1.1ZM113.82,201.08c-.65-.67-.93,1.67-.53,1.92,1.22.78.72-1.72.53-1.92ZM104.14,202.46c-2.04-.2-1.06.17-1.45,1.17-.36.92-2.6,3.67-.19,2.3l1.64-3.47ZM113.54,205.5c1.09,0,1.1-1.1,0-1.1v1.1ZM113.27,205.5c-.48-.48-1.41.44-.41.82.59.22.49-.74.41-.82ZM101.38,207.15h-.55v.83h.55v-.83ZM110.23,207.71c-.26-.3-1.12.56-.83.83.47.41,1.24-.35.83-.83ZM112.16,207.98h-.55v.83h.55v-.83ZM100.55,208.54h-.55v.83h.55v-.83ZM100,209.64c-1.52,0-.91.91-1.31,1.86-.3.73-1.66,2.32-2.15,3.1-.85,1.36-.04,1.62.63.63s2.2-3.44,2.69-4.5c.17-.37.18-.7.15-1.09ZM109.95,209.64c-1.94-.44-1.34,2.29-1.1,3.59-1.96-.18-1.1.68.14,1.1.49.16.38,0,.33-.35-.18-1.13,1.04-2.93.63-4.34ZM96.13,216.26c-.42-.15-1.28,1.04-1.39,1.23-.25.44-.34.73-.26,1.25.45.52,1.94-1.9,1.66-2.48ZM94.47,219.02h-.55v.83h.55v-.83ZM93.92,220.68c-.47-.41-1.24.35-.83.83.26.3,1.12-.56.83-.83ZM104.7,220.68c-.44-.44-1.26.39-.83.83s1.26-.39.83-.83ZM92.81,222.06c-.9-.17-.38.68-.81,1.27-.11.15-1.66.98-1.12,1.49.71.67,2.21-2.17,1.93-2.76ZM102.76,223.44c-.11-.12-1.31.53-1.35.6-.2.34.77,1.79-.49,2.13s-.46-1.25-1.48-1.07c.28.46.45,2.66.55,2.76.04.04.84.04,1.04-.07.53-.29,1.9-4.16,1.72-4.35ZM99.45,228.69c-1.52-.67-1,2.32-.83,2.48.06.05.6-.03.83,0v-2.48ZM97.23,229.79h-.55v1.1h.55v-1.1Z" style="fill:#1aaeb9;"/><path d="M234.06,277.55l20.73-39.2c2.4-1.24,5.61-3.41,7.83-5.02,6.69-4.86,12.14-10.97,17.32-17.34-6.31,26.37-20.61,49.93-45.88,61.56Z" style="fill:#12c7b6;"/><path d="M252.3,239.45c-.07,1.06-1.72,1.85-2.49,1.1.66-.25,1.77-.78,2.49-1.1Z" style="fill:#12c7b6;"/><path d="M211.67,75.76c.27.99-1.78.76-1.66-.28.78-.03,1.11.21,1.66.28Z" style="fill:#1babba;"/><path d="M285.2,179.82c-.46.49-1.52.27-2.21.28.46-.49,1.52-.27,2.21-.28Z" style="fill:#12c9b6;"/><path d="M290.17,179.55s-.23.24-.83.28l.83-.28Z" style="fill:#12c9b6;"/><path d="M271.1,179.82c-.3,0-.7.08-.83-.28.3.01.69-.08.83.28Z" style="fill:#14c1b7;"/><path d="M293.21,179.27s-.06.23-.55.28l.55-.28Z" style="fill:#12c9b6;"/><path d="M295.7,179s-.07.22-.55.28l.55-.28Z" style="fill:#12c9b6;"/><path d="M299.57,178.44s-.08.2-.55.28l.55-.28Z" style="fill:#12c9b6;"/><path d="M315.05,137.59l-.55-.28c.49.05.52.27.55.28Z" style="fill:#12c9b6;"/><path d="M312.84,137.31c-.23-.02-.48,0-.55-.28.23.03.48,0,.55.28Z" style="fill:#12c9b6;"/><path d="M184.58,222.06c-.17-.68-.64-1.5.41-1.65l.67.93-1.08.73Z" style="fill:#15bfb7;"/><path d="M186.79,222.61c.08.85-.7.9-1.38.83-.08-.85.7-.9,1.38-.83Z" style="fill:#15bfb7;"/><rect x="248.71" y="244.15" width=".55" height=".83" style="fill:#12c7b6;"/><path d="M102.76,223.44c.18.19-1.19,4.06-1.72,4.35-.2.11-1,.11-1.04.07-.1-.1-.27-2.3-.55-2.76,1.01-.18.26,1.4,1.48,1.07s.29-1.78.49-2.13c.04-.06,1.23-.72,1.35-.6Z" style="fill:#1aaeb9;"/><path d="M109.95,209.64c.41,1.41-.81,3.21-.63,4.34.06.35.16.52-.33.35-1.25-.42-2.11-1.28-.14-1.1-.24-1.3-.84-4.03,1.1-3.59Z" style="fill:#1aaeb9;"/><path d="M100,209.64c.04.39.02.72-.15,1.09-.48,1.06-1.98,3.46-2.69,4.5s-1.48.73-.63-.63c.49-.78,1.85-2.37,2.15-3.1.4-.95-.21-1.86,1.31-1.86Z" style="fill:#1ca8ba;"/><path d="M104.14,202.46l-1.64,3.47c-2.4,1.37-.17-1.38.19-2.3.39-.99-.6-1.37,1.45-1.17Z" style="fill:#1ca8ba;"/><path d="M123.21,185.62s.03.77.2,1.04c.29.48.75.16.64,1-.1.75-.51,1.46-1.38,1.28.21-.61-.55-3.05-.28-3.31.03-.03.79-.02.82,0Z" style="fill:#1aaeb9;"/><path d="M109.12,193.35c.3.27-1.23,2.26-1.14,2.86-.5.95-1.09.25-1.09-.49,0-.18.48-.15.65-.51.19-.41.43-1.77.5-1.84.09-.08,1.03-.07,1.07-.03Z" style="fill:#1ca8ba;"/><path d="M99.45,228.69v2.48c-.22-.03-.77.05-.83,0-.18-.17-.69-3.16.83-2.48Z" style="fill:#1aaeb9;"/><path d="M96.13,216.26c.28.58-1.2,3-1.66,2.48-.08-.52.01-.81.26-1.25.11-.19.98-1.38,1.39-1.23Z" style="fill:#1ca8ba;"/><path d="M111.05,189.76l-.32,1.19-1.33,1.56c-.09-.46,1.08-3.39,1.66-2.76Z" style="fill:#1ca8ba;"/><path d="M92.81,222.06c.27.59-1.22,3.43-1.93,2.76-.54-.51,1.01-1.34,1.12-1.49.43-.59-.09-1.44.81-1.27Z" style="fill:#1ca8ba;"/><path d="M116.03,202.19h-.83s0-1.93,0-1.93c1.09-.04.83,1.17.83,1.93Z" style="fill:#1aaeb9;"/><path d="M113.82,201.08c.19.2.69,2.7-.53,1.92-.4-.25-.11-2.59.53-1.92Z" style="fill:#1aaeb9;"/><path d="M125.15,183.69v1.66c-1.65.59-.5-2.29,0-1.66Z" style="fill:#1aaeb9;"/><path d="M104.97,200.53c.2.2-.1,1.23-.69,1.1-1.02-.22.15-1.63.69-1.1Z" style="fill:#1ca8ba;"/><path d="M119.35,193.08v1.1s-.41,0-.41,0c-.43-.29-.48-.59-.42-1.1h.83Z" style="fill:#1aaeb9;"/><path d="M113.54,205.5v-1.1c1.1,0,1.09,1.1,0,1.1Z" style="fill:#1aaeb9;"/><path d="M116.86,198.32v1.1c-1.1,0-1.09-1.1,0-1.1Z" style="fill:#1aaeb9;"/><path d="M104.7,220.68c.44.44-.39,1.26-.83.83s.39-1.26.83-.83Z" style="fill:#1aaeb9;"/><path d="M113.27,205.5c.08.08.18,1.05-.41.82-1-.38-.07-1.3.41-.82Z" style="fill:#1aaeb9;"/><path d="M110.23,207.71c.42.47-.36,1.24-.83.83-.3-.26.57-1.12.83-.83Z" style="fill:#1aaeb9;"/><path d="M93.92,220.68c.3.26-.57,1.12-.83.83-.42-.47.36-1.24.83-.83Z" style="fill:#1ca8ba;"/><rect x="96.68" y="229.79" width=".55" height="1.1" style="fill:#1aaeb9;"/><path d="M106.91,197.49c.28.29-.55,1.11-.83.83s.55-1.11.83-.83Z" style="fill:#1ca8ba;"/><rect x="100.83" y="207.15" width=".55" height=".83" style="fill:#1ca8ba;"/><rect x="111.61" y="207.98" width=".55" height=".83" style="fill:#1aaeb9;"/><rect x="100" y="208.54" width=".55" height=".83" style="fill:#1ca8ba;"/><rect x="93.92" y="219.02" width=".55" height=".83" style="fill:#1ca8ba;"/><path d="M120.45,189.49c.3.3-.25.85-.55.55s.25-.85.55-.55Z" style="fill:#1aaeb9;"/></g></svg>